<?xml version="1.0" standalone="no"?>
<!DOCTYPE svg PUBLIC "-//W3C//DTD SVG 20010904//EN"
 "http://www.w3.org/TR/2001/REC-SVG-20010904/DTD/svg10.dtd">
<svg version="1.0" xmlns="http://www.w3.org/2000/svg"
 width="300.000000pt" height="300.000000pt" viewBox="0 0 300.000000 300.000000"
 preserveAspectRatio="xMidYMid meet">
<metadata>
Created by potrace 1.10, written by Peter Selinger 2001-2011
</metadata>
<g transform="translate(0.000000,300.000000) scale(0.100000,-0.100000)"
fill="#000000" stroke="none">
<path d="M1411 2349 c-35 -4 -69 -5 -74 -2 -6 3 -7 1 -4 -4 8 -13 -39 -27 -55
-17 -6 4 -8 3 -5 -3 4 -6 -8 -17 -26 -24 -17 -7 -47 -23 -66 -35 -19 -13 -39
-20 -45 -17 -6 3 -8 3 -4 -1 6 -8 -78 -91 -92 -91 -11 0 -25 -14 -26 -26 -1
-5 -2 -14 -3 -20 0 -5 -6 -7 -11 -4 -6 4 -10 3 -9 -2 3 -20 -2 -34 -11 -28 -6
4 -10 3 -9 -2 3 -20 -2 -34 -11 -28 -6 4 -7 -1 -3 -11 4 -12 3 -15 -5 -10 -8
5 -10 1 -5 -10 4 -12 3 -15 -5 -10 -8 5 -10 1 -5 -10 4 -12 3 -15 -5 -10 -8 5
-10 1 -5 -10 5 -12 3 -15 -6 -9 -10 6 -11 2 -6 -15 5 -17 4 -21 -5 -15 -9 5
-11 4 -6 -3 4 -7 4 -29 0 -49 -6 -31 -8 -34 -15 -18 -4 12 -6 -3 -3 -35 3 -39
1 -48 -5 -30 -6 18 -8 4 -7 -47 0 -40 5 -73 10 -73 5 0 6 -21 3 -47 -4 -35 -3
-42 4 -28 7 15 8 10 4 -20 -2 -24 -1 -35 4 -27 11 18 25 -33 15 -51 -4 -7 -3
-9 1 -4 11 9 37 -51 28 -66 -3 -6 -1 -7 5 -3 11 7 17 -7 12 -29 -1 -5 2 -7 6
-3 6 7 79 -79 79 -94 0 -5 2 -7 5 -6 11 6 70 -44 64 -54 -4 -6 -3 -9 2 -5 13
8 86 -38 76 -48 -4 -4 -1 -5 6 -1 7 4 18 3 25 -2 37 -31 147 -56 269 -61 73
-4 124 -2 121 3 -3 5 6 7 21 4 14 -3 26 -1 26 5 0 5 9 7 20 4 13 -3 18 -1 13
6 -4 6 2 8 15 5 14 -4 20 -2 15 5 -4 6 2 8 15 5 14 -4 20 -2 15 5 -4 7 0 8 11
4 9 -4 15 -3 12 1 -3 5 11 16 30 25 19 9 62 39 97 65 34 27 65 49 70 50 4 1 6
3 5 5 -5 7 25 46 34 44 7 -1 12 5 13 13 1 24 35 81 44 75 5 -3 7 5 3 17 -4 16
-2 19 8 13 8 -5 11 -4 7 2 -7 11 16 96 25 88 3 -3 3 6 0 21 -3 15 -1 24 4 21
5 -3 9 48 9 118 0 68 -4 118 -8 112 -5 -7 -7 2 -5 20 3 19 0 30 -5 26 -6 -4
-7 5 -3 21 4 18 3 25 -4 21 -9 -6 -14 10 -13 42 1 7 -4 10 -10 6 -6 -4 -8 0
-4 11 5 11 3 15 -5 10 -8 -5 -9 -2 -5 10 5 11 3 15 -5 10 -8 -5 -9 -2 -5 10 4
10 3 15 -3 11 -6 -3 -10 -1 -10 4 0 6 0 13 -1 16 0 2 -13 18 -29 36 -17 17
-27 35 -24 40 3 5 0 8 -8 7 -7 -2 -12 2 -11 8 1 6 -17 29 -40 50 l-42 39 35
-41 c22 -25 16 -21 -14 10 -27 28 -56 50 -64 48 -8 -2 -11 1 -8 6 3 5 -2 9
-12 8 -9 0 -16 4 -15 11 2 8 -4 10 -14 6 -12 -5 -14 -3 -8 7 6 10 4 12 -8 7
-10 -3 -17 -2 -17 3 0 5 -7 6 -17 3 -11 -4 -14 -3 -9 5 5 8 2 10 -8 6 -9 -3
-16 -2 -16 4 0 6 -10 8 -22 4 -15 -3 -19 -2 -14 7 6 8 1 10 -18 5 -14 -3 -26
-2 -26 2 0 12 -138 13 -219 3z m238 -34 c81 -20 189 -76 251 -132 54 -49 127
-152 136 -192 3 -14 12 -40 19 -56 59 -131 32 -387 -52 -507 -15 -23 -33 -50
-40 -61 -24 -42 -129 -121 -198 -149 -103 -42 -135 -50 -208 -54 -158 -7 -277
23 -389 99 -27 18 -48 39 -48 47 0 8 34 50 75 92 l75 78 46 -30 c126 -80 272
-79 386 2 66 46 123 129 134 192 3 23 10 49 15 58 5 9 5 19 0 22 -4 3 -11 28
-14 55 -16 131 -133 249 -267 268 -29 5 -54 11 -54 14 -2 12 76 103 114 134
43 35 74 74 66 82 -9 9 -185 -173 -191 -199 -6 -22 -13 -26 -54 -30 -100 -10
-203 -85 -251 -183 -20 -41 -24 -66 -24 -140 -1 -94 11 -132 67 -207 l21 -28
-89 -91 -90 -90 -38 43 c-45 51 -102 162 -122 238 -19 71 -19 210 0 285 56
223 241 401 460 445 67 13 196 11 264 -5z m-26 -301 c26 -9 68 -35 95 -59 65
-59 95 -122 100 -212 6 -104 -16 -163 -88 -235 -48 -48 -68 -60 -129 -79 -91
-27 -151 -22 -238 21 -67 33 -110 78 -145 150 -31 64 -31 176 0 246 30 66 105
139 168 164 62 24 173 26 237 4z"/>
<path d="M1840 2098 c-47 -47 -75 -86 -68 -94 3 -2 33 27 68 66 67 76 67 96 0
28z"/>
<path d="M1845 2045 c-81 -76 -90 -98 -19 -47 43 31 104 97 104 112 0 14 3 16
-85 -65z"/>
<path d="M2014 1898 c-9 -18 -42 -59 -73 -93 -56 -59 -56 -59 -11 -24 45 36
95 99 103 132 8 27 -1 20 -19 -15z"/>
<path d="M1066 1590 c-105 -53 -112 -57 -104 -65 7 -8 208 95 208 106 0 11 10
16 -104 -41z"/>
<path d="M1456 1870 c-41 -13 -85 -58 -98 -101 -29 -100 48 -199 155 -199 111
0 181 124 128 228 -31 61 -116 94 -185 72z m145 -76 c30 -32 35 -104 9 -134
-11 -12 -20 -26 -20 -29 0 -3 -12 -12 -27 -18 -108 -51 -221 74 -157 174 14
22 60 48 99 56 23 4 67 -18 96 -49z"/>
<path d="M885 1261 c-33 -3 -65 -10 -72 -14 -18 -12 -74 -97 -63 -97 5 0 19
18 30 40 25 49 40 55 156 64 l92 7 23 -42 c13 -23 35 -49 49 -57 l25 -14 -21
18 c-12 11 -34 38 -48 62 -29 47 -31 47 -171 33z"/>
<path d="M1893 1234 c-13 -13 -23 -33 -23 -43 0 -27 -36 -47 -120 -64 -41 -9
-88 -20 -103 -26 -43 -16 -94 -59 -118 -98 l-21 -34 -18 28 c-22 36 -85 91
-119 104 -34 13 -132 35 -196 44 l-50 7 29 -31 c34 -35 110 -75 128 -68 8 3 6
6 -5 6 -10 1 -15 6 -12 11 3 6 -3 10 -14 10 -11 0 -23 5 -27 12 -10 17 96 4
140 -17 20 -9 58 -40 86 -69 38 -39 50 -58 50 -82 0 -18 6 -34 14 -37 12 -5
12 0 5 26 -10 34 -3 71 11 62 5 -3 23 8 39 24 38 37 102 74 161 94 25 9 77 28
115 42 69 27 320 69 339 58 5 -3 -3 -12 -18 -20 -39 -21 -32 -28 24 -25 l50 4
-18 30 c-40 68 -52 73 -185 75 -119 2 -123 1 -144 -23z m187 -13 c45 -2 7 -18
-57 -25 -43 -5 -63 -3 -63 4 0 14 34 26 68 24 15 -1 38 -3 52 -3z"/>
<path d="M540 1140 c0 -19 6 -20 88 -18 l87 2 -82 3 c-46 2 -83 8 -83 13 0 5
42 11 93 13 l92 3 -97 2 c-92 2 -98 1 -98 -18z"/>
<path d="M2333 1153 c105 -4 108 -22 4 -25 l-72 -2 60 -3 c70 -5 101 1 109 22
5 13 -9 15 -92 13 l-97 -2 88 -3z"/>
<path d="M2198 1122 c-32 -2 -58 -6 -58 -11 0 -4 23 -12 52 -17 102 -18 62
-29 -110 -30 -171 0 -367 -22 -307 -34 26 -5 23 -7 -25 -14 -30 -5 -50 -10
-45 -12 6 -2 44 2 85 10 41 8 64 15 50 16 l-25 2 25 8 c14 4 63 8 110 7 l85
-1 -85 -6 c-61 -5 -24 -7 133 -8 119 -1 217 0 217 3 0 3 -10 25 -22 48 l-23
42 -57 -3z"/>
<path d="M685 1028 c-97 -178 -102 -188 -97 -216 l4 -27 386 -3 387 -4 18 -24
c18 -23 24 -24 131 -24 110 0 113 1 126 25 l13 25 221 2 c122 1 239 2 261 4
22 1 93 2 158 3 l117 1 0 30 c0 30 -57 157 -66 147 -3 -2 9 -37 27 -76 18 -39
29 -74 26 -77 -3 -3 -171 -8 -373 -10 -350 -4 -369 -5 -389 -24 -19 -17 -35
-20 -128 -20 -94 0 -107 2 -116 19 -10 18 -33 19 -395 26 -369 7 -385 8 -389
27 -5 19 1 19 341 16 191 -2 291 -1 222 2 l-125 6 116 2 c118 2 212 -6 205
-17 -8 -12 55 -4 67 9 10 12 9 12 -5 1 -12 -9 -18 -10 -18 -3 0 14 35 34 44
25 3 -3 6 -1 6 5 0 16 -66 56 -125 75 -71 23 -208 37 -365 36 -258 -1 -235
-15 35 -21 263 -6 339 -14 300 -29 -16 -6 -12 -8 18 -10 48 -2 48 -2 72 -17
18 -12 17 -13 -10 -7 -106 20 -169 24 -320 24 -93 -1 -217 -5 -275 -9 -69 -4
4 -6 215 -6 326 1 387 -5 369 -36 -6 -10 -4 -11 7 0 17 16 26 15 26 -3 0 -13
-8 -14 -46 -8 -51 9 -665 6 -694 -3 -16 -5 -15 0 7 45 14 28 26 54 26 58 -1 4
-16 -21 -34 -56 -21 -41 -36 -60 -40 -52 -5 7 5 36 20 66 l28 54 84 11 c112
16 478 8 547 -12 70 -21 120 -45 149 -75 39 -39 54 -23 18 19 -69 77 -201 108
-480 111 -144 1 -195 -1 -200 -10 -5 -7 -29 -15 -55 -18 -50 -5 -52 -1 -19 38
8 9 11 17 6 17 -5 0 1 7 12 14 12 8 30 15 40 15 10 0 55 6 99 14 l80 15 -110
1 -110 1 -50 -92z"/>
<path d="M1895 969 c-171 -5 -217 -9 -250 -24 -42 -18 -103 -64 -88 -66 4 -1
-5 -5 -22 -9 l-30 -8 27 -1 c15 0 30 4 33 9 4 7 12 7 25 0 13 -7 28 -6 47 1
40 17 296 22 508 10 176 -9 174 -10 -100 -5 -282 4 -408 -4 -429 -26 -8 -10
-4 -11 21 -7 18 4 78 8 135 10 57 3 78 2 48 -2 -30 -3 78 -6 241 -6 l297 0
-30 59 c-24 47 -27 61 -16 68 13 9 -30 7 -134 -8 -26 -4 -53 -3 -60 2 -7 5
-107 6 -223 3z m395 -36 c0 -9 -67 -10 -283 -6 -211 5 -296 3 -335 -7 -67 -16
-62 -23 7 -10 53 10 636 2 626 -9 -3 -2 -148 -5 -323 -6 -174 -1 -329 -4 -343
-7 -19 -4 -26 -2 -25 8 3 21 9 24 77 39 84 18 599 17 599 -2z"/>
<path d="M714 948 c-3 -4 125 -7 283 -6 220 1 269 3 208 10 -93 9 -485 6 -491
-4z"/>
<path d="M785 890 c-55 -4 35 -4 200 -2 165 3 302 6 304 8 7 6 -392 1 -504 -6z"/>
<path d="M1588 840 c6 -9 12 -29 12 -44 0 -16 4 -25 10 -21 16 10 11 32 -12
57 -13 13 -17 17 -10 8z"/>
</g>
</svg>
